<?xml version="1.0" encoding="UTF-8" standalone="no"?>
<svg
   xmlns:dc="http://purl.org/dc/elements/1.1/"
   xmlns:cc="http://creativecommons.org/ns#"
   xmlns:rdf="http://www.w3.org/1999/02/22-rdf-syntax-ns#"
   xmlns:svg="http://www.w3.org/2000/svg"
   xmlns="http://www.w3.org/2000/svg"
   xmlns:sodipodi="http://sodipodi.sourceforge.net/DTD/sodipodi-0.dtd"
   xmlns:inkscape="http://www.inkscape.org/namespaces/inkscape"
   viewBox="0 0 512 512"
   version="1.1"
   id="svg101"
   sodipodi:docname="iconfinder_multimedia-12_2849824.svg"
   inkscape:version="1.0.2-2 (e86c870879, 2021-01-15)">
  <metadata
     id="metadata107">
    <rdf:RDF>
      <cc:Work
         rdf:about="">
        <dc:format>image/svg+xml</dc:format>
        <dc:type
           rdf:resource="http://purl.org/dc/dcmitype/StillImage" />
      </cc:Work>
    </rdf:RDF>
  </metadata>
  <defs
     id="defs105" />
  <sodipodi:namedview
     pagecolor="#ffffff"
     bordercolor="#666666"
     borderopacity="1"
     objecttolerance="10"
     gridtolerance="10"
     guidetolerance="10"
     inkscape:pageopacity="0"
     inkscape:pageshadow="2"
     inkscape:window-width="1360"
     inkscape:window-height="705"
     id="namedview103"
     showgrid="false"
     inkscape:zoom="1.0507812"
     inkscape:cx="256"
     inkscape:cy="256"
     inkscape:window-x="-8"
     inkscape:window-y="-8"
     inkscape:window-maximized="1"
     inkscape:current-layer="svg101" />
  <title
     id="title90" />
  <g
     data-name="1"
     id="_1">
    <path
       d="M397.78,316H192.65A15,15,0,0,1,178,304.33L143.46,153.85a15,15,0,0,1,14.62-18.36H432.35A15,15,0,0,1,447,153.85L412.4,304.33A15,15,0,0,1,397.78,316ZM204.59,286H385.84l27.67-120.48H176.91Z"
       id="path92" />
    <path
       d="M222,450a57.48,57.48,0,1,1,57.48-57.48A57.54,57.54,0,0,1,222,450Zm0-84.95a27.48,27.48,0,1,0,27.48,27.47A27.5,27.5,0,0,0,222,365.05Z"
       id="path94" />
    <path
       d="M368.42,450a57.48,57.48,0,1,1,57.48-57.48A57.54,57.54,0,0,1,368.42,450Zm0-84.95a27.48,27.48,0,1,0,27.48,27.47A27.5,27.5,0,0,0,368.42,365.05Z"
       id="path96" />
    <path
       d="M158.08,165.49a15,15,0,0,1-14.23-10.26L118.14,78H70.7a15,15,0,1,1,0-30H129a15,15,0,0,1,14.23,10.26l29.13,87.49a15,15,0,0,1-14.23,19.74Z"
       id="path98" />
  </g>
  <rect
     style="fill:#000000;stroke:#000000;stroke-width:1.00708"
     id="rect109"
     width="236.47482"
     height="137.99257"
     x="176.55122"
     y="153.21933" />
</svg>
