<?xml version="1.0" encoding="UTF-8" standalone="no"?>
<svg
   xmlns:dc="http://purl.org/dc/elements/1.1/"
   xmlns:cc="http://creativecommons.org/ns#"
   xmlns:rdf="http://www.w3.org/1999/02/22-rdf-syntax-ns#"
   xmlns:svg="http://www.w3.org/2000/svg"
   xmlns="http://www.w3.org/2000/svg"
   xmlns:sodipodi="http://sodipodi.sourceforge.net/DTD/sodipodi-0.dtd"
   xmlns:inkscape="http://www.inkscape.org/namespaces/inkscape"
   version="1.1"
   id="Capa_1"
   x="0px"
   y="0px"
   viewBox="0 0 183.588 183.588"
   style="enable-background:new 0 0 183.588 183.588;"
   xml:space="preserve"
   sodipodi:docname="upload.svg"
   inkscape:version="1.0.2-2 (e86c870879, 2021-01-15)"><metadata
   id="metadata65"><rdf:RDF><cc:Work
       rdf:about=""><dc:format>image/svg+xml</dc:format><dc:type
         rdf:resource="http://purl.org/dc/dcmitype/StillImage" /></cc:Work></rdf:RDF></metadata><defs
   id="defs63" /><sodipodi:namedview
   pagecolor="#ffffff"
   bordercolor="#666666"
   borderopacity="1"
   objecttolerance="10"
   gridtolerance="10"
   guidetolerance="10"
   inkscape:pageopacity="0"
   inkscape:pageshadow="2"
   inkscape:window-width="820"
   inkscape:window-height="480"
   id="namedview61"
   showgrid="false"
   inkscape:zoom="1.0360793"
   inkscape:cx="45.068024"
   inkscape:cy="86.058628"
   inkscape:window-x="0"
   inkscape:window-y="0"
   inkscape:window-maximized="0"
   inkscape:current-layer="Capa_1"
   inkscape:document-rotation="0" />
<g
   id="g28"
   style="fill:#ffffff"
   transform="matrix(0.70559123,0,0,0.74063012,27.990136,24.773775)">
	<g
   id="g26"
   style="fill:#ffffff">
		<g
   id="g6"
   style="fill:#ffffff">
			<g
   id="g4"
   style="fill:#ffffff">
				<path
   style="fill:#ffffff"
   d="M 183.588,169.94 H 0 V 94.158 h 50.394 c 1.99,0 3.597,1.61 3.597,3.6 0,1.986 -1.61,3.6 -3.597,3.6 H 7.19 v 61.384 H 176.387 V 101.358 H 134.99 c -1.997,0 -3.6,-1.614 -3.6,-3.6 0,-1.993 1.603,-3.6 3.6,-3.6 h 48.597 c 0.001,0 0.001,75.782 0.001,75.782 z"
   id="path2" />
			</g>
		</g>
		<g
   id="g24"
   style="fill:#ffffff">
			<g
   id="g14"
   style="fill:#ffffff">
				<g
   id="g12"
   style="fill:#ffffff">
					<g
   id="g10"
   style="fill:#ffffff">
						<path
   style="fill:#ffffff"
   d="m 90.695,13.648 c 0.558,0 1.124,0.107 1.65,0.326 1.607,0.666 2.656,2.237 2.656,3.976 v 126.981 c 0,2.38 -1.925,4.309 -4.309,4.309 -2.373,0 -4.295,-1.929 -4.295,-4.309 V 28.343 L 69.705,45.027 c -1.671,1.682 -4.395,1.682 -6.077,0 -1.696,-1.682 -1.696,-4.406 0,-6.088 L 87.656,14.903 c 0.82,-0.818 1.926,-1.255 3.039,-1.255 z"
   id="path8" />
					</g>
				</g>
			</g>
			<g
   id="g22"
   style="fill:#ffffff">
				<g
   id="g20"
   style="fill:#ffffff">
					<g
   id="g18"
   style="fill:#ffffff">
						<path
   style="fill:#ffffff"
   d="m 90.846,13.648 c 1.095,0 2.197,0.419 3.042,1.256 l 24.028,24.036 c 1.686,1.682 1.686,4.406 0,6.088 -1.686,1.682 -4.402,1.682 -6.08,0 L 87.8,20.995 c -1.686,-1.682 -1.686,-4.406 0,-6.091 0.841,-0.837 1.943,-1.256 3.046,-1.256 z"
   id="path16" />
					</g>
				</g>
			</g>
		</g>
	</g>
</g>
<g
   id="g30">
</g>
<g
   id="g32">
</g>
<g
   id="g34">
</g>
<g
   id="g36">
</g>
<g
   id="g38">
</g>
<g
   id="g40">
</g>
<g
   id="g42">
</g>
<g
   id="g44">
</g>
<g
   id="g46">
</g>
<g
   id="g48">
</g>
<g
   id="g50">
</g>
<g
   id="g52">
</g>
<g
   id="g54">
</g>
<g
   id="g56">
</g>
<g
   id="g58">
</g>
</svg>
